<svg xmlns="http://www.w3.org/2000/svg" width="152" height="144"><title>follow</title><desc>Created with Sketch.</desc><g fill="none"><g><g><path fill="#252525" d="M0 0h152v144H0z"/><path fill="#fff" fill-rule="nonzero" d="M90.5 78c-4.7 0-8.5 3.8-8.5 8.5s3.8 8.5 8.5 8.5 8.5-3.8 8.5-8.5-3.8-8.5-8.5-8.5zm4.5 9h-4v4h-2v-4h-4v-2h4v-4h2v4h4v2zm-13.97 8H53v-2.38c0-4.83.38-7.62 6-8.94 6.38-1.5 12.66-2.82 9.64-8.46C59.7 58.5 66.1 49 75.7 49c12.77 0 14.2 14.56 6.9 26.22-2.46 3.9-5 6.96-5 11.16 0 3.34 1.3 6.38 3.43 8.62z"/></g></g></g></svg>