<svg xmlns="http://www.w3.org/2000/svg" width="35" height="35"><title>instagram</title><desc>Created with Sketch.</desc><defs><radialGradient id="a" cx="26.563%" cy="107.702%" r="99.107%" fx="26.563%" fy="107.702%"><stop stop-color="#fd5" offset="0%"/><stop stop-color="#fd5" offset="10%"/><stop stop-color="#FF543E" offset="50%"/><stop stop-color="#C837AB" offset="100%"/></radialGradient><radialGradient id="b" cx="-16.751%" cy="7.204%" r="44.301%" fx="-16.751%" fy="7.204%"><stop stop-color="#3771C8" offset="0%"/><stop stop-color="#3771C8" offset="12.8%"/><stop stop-color="#60f" stop-opacity="0" offset="100%"/></radialGradient></defs><g fill="none"><g><g><path id="Path" fill="url(#a)" d="M17.5 0c-7.3 0-9.44 0-9.85.04C6.15.17 5.22.4 4.2.9c-.78.4-1.4.85-2 1.48C1.07 3.53.4 4.95.15 6.64.04 7.46 0 7.62 0 11.8c0 1.4 0 3.23 0 5.7 0 7.3 0 9.43.04 9.85.13 1.45.35 2.37.84 3.38.92 1.92 2.7 3.36 4.78 3.9.72.2 1.5.3 2.54.34.43.02 4.85.03 9.27.03s8.84 0 9.26-.03c1.2-.05 1.87-.15 2.63-.34 2.1-.54 3.84-1.96 4.78-3.9.48-1 .72-1.95.83-3.33.02-.3.03-5.1.03-9.9 0-4.8 0-9.6-.03-9.9-.1-1.42-.36-2.37-.85-3.36-.4-.82-.85-1.43-1.5-2.06C31.48 1.08 30.06.4 28.37.16 27.56.04 27.38 0 23.2 0h-5.7z"/><path fill="url(#b)" d="M17.5 0c-7.3 0-9.44 0-9.85.04C6.15.17 5.22.4 4.2.9c-.78.4-1.4.85-2 1.48C1.07 3.53.4 4.95.15 6.64.04 7.46 0 7.62 0 11.8c0 1.4 0 3.23 0 5.7 0 7.3 0 9.43.04 9.85.13 1.45.35 2.37.84 3.38.92 1.92 2.7 3.36 4.78 3.9.72.2 1.5.3 2.54.34.43.02 4.85.03 9.27.03s8.84 0 9.26-.03c1.2-.05 1.87-.15 2.63-.34 2.1-.54 3.84-1.96 4.78-3.9.48-1 .72-1.95.83-3.33.02-.3.03-5.1.03-9.9 0-4.8 0-9.6-.03-9.9-.1-1.42-.36-2.37-.85-3.36-.4-.82-.85-1.43-1.5-2.06C31.48 1.08 30.06.4 28.37.16 27.56.04 27.38 0 23.2 0h-5.7z"/><path fill="#fff" fill-rule="nonzero" d="M17 5c-3.53 0-3.97.02-5.36.08-1.38.06-2.33.28-3.15.6-.87.33-1.6.78-2.32 1.5-.72.72-1.16 1.45-1.5 2.3-.32.83-.54 1.78-.6 3.16C4.02 14.04 4 14.47 4 18c0 3.53.02 3.97.08 5.36.06 1.38.28 2.33.6 3.15.33.87.78 1.6 1.5 2.32.72.72 1.45 1.17 2.3 1.5.83.32 1.78.54 3.16.6 1.4.06 1.83.08 5.36.08 3.53 0 3.97-.02 5.36-.08 1.38-.06 2.33-.28 3.16-.6.85-.33 1.57-.78 2.3-1.5.72-.73 1.16-1.45 1.5-2.3.32-.83.54-1.78.6-3.16.06-1.4.08-1.83.08-5.36 0-3.53-.02-3.97-.08-5.36-.06-1.38-.28-2.33-.6-3.16-.34-.85-.78-1.58-1.5-2.3-.73-.72-1.45-1.17-2.3-1.5-.83-.32-1.78-.54-3.16-.6C20.96 5.02 20.53 5 17 5zm-1.17 2.34c.35 0 .74 0 1.17 0 3.47 0 3.88.02 5.25.08 1.27.06 1.96.27 2.42.45.6.23 1.04.5 1.5.97.45.45.73.9.96 1.5.18.45.4 1.14.45 2.4.06 1.38.08 1.8.08 5.26 0 3.47-.02 3.88-.08 5.25-.06 1.27-.27 1.95-.45 2.4-.23.62-.5 1.05-.97 1.5-.45.46-.9.74-1.5.98-.45.18-1.14.4-2.4.45-1.38.06-1.8.07-5.26.07-3.47 0-3.88 0-5.25-.07-1.27-.06-1.96-.28-2.42-.45-.6-.24-1.04-.52-1.5-.98-.45-.45-.73-.88-.96-1.5-.18-.45-.4-1.14-.45-2.4-.06-1.37-.08-1.78-.08-5.26 0-3.48.02-3.9.08-5.26.06-1.27.27-1.95.45-2.4.23-.62.5-1.05.97-1.5.45-.46.9-.74 1.5-.98.45-.18 1.14-.4 2.4-.45 1.2-.04 1.67-.06 4.1-.06zm8.1 2.16c-.85 0-1.55.7-1.55 1.56 0 .86.7 1.56 1.56 1.56.86 0 1.56-.7 1.56-1.56 0-.86-.7-1.56-1.56-1.56zM17 11.32c-3.7 0-6.67 3-6.67 6.68 0 3.7 2.98 6.67 6.67 6.67 3.7 0 6.68-2.98 6.68-6.67 0-3.7-3-6.68-6.68-6.68zm0 2.35c2.4 0 4.33 1.94 4.33 4.33 0 2.4-1.94 4.33-4.33 4.33-2.4 0-4.33-1.94-4.33-4.33 0-2.4 1.94-4.33 4.33-4.33z"/></g></g></g></svg>