<svg xmlns="http://www.w3.org/2000/svg" width="35" height="36"><title>Group</title><desc>Created with Sketch.</desc><g fill="none"><g><g><path id="Path" fill="#006192" d="M32.38.5H2.62C1.16.5 0 1.67 0 3.03v29.94c0 1.36 1.16 2.53 2.62 2.53h29.76c1.46 0 2.62-1.17 2.62-2.53V3.03C35 1.67 33.84.5 32.38.5z"/><path fill="#fff" fill-rule="nonzero" d="M5.4 12.77h5.12V29.5H5.4V12.77zM8 4.5c1.65 0 3 1.36 3 3.02 0 1.65-1.35 3-3 3s-3-1.35-3-3C5 5.76 6.35 4.5 8 4.5z"/><path fill="#fff" d="M14 12.98h4.9v2.22h.08c.67-1.35 2.4-2.7 4.9-2.7 5.16 0 6.12 3.48 6.12 7.92v9.08h-5.08v-8.1c0-1.95 0-4.46-2.68-4.46s-3.07 2.13-3.07 4.25v8.2H14.1V12.98H14z"/></g></g></g></svg>