<svg xmlns="http://www.w3.org/2000/svg" width="152" height="144"><title>logosFramed/medium</title><desc>Created with Sketch.</desc><g fill="none"><g><path fill="#D9D9D9" d="M0 0h152v144H0z"/><g fill="#231F20"><g><g><g><path d="M99 59.3h-1.78c-.66 0-1.6.97-1.6 1.6v22.34c0 .6.94 1.45 1.6 1.45H99V90H82.87v-5.3h3.38V61.2h-.17L78.2 90h-6.1l-7.78-28.8h-.2v23.5h3.38V90H54v-5.3h1.73c.7 0 1.65-.85 1.65-1.46V60.9c0-.63-.94-1.6-1.65-1.6H54V54h16.88l5.54 20.84h.16L82.18 54H99v5.3"/></g></g></g></g></g></g></svg>