<?xml version="1.0" encoding="UTF-8"?>
<svg width="45px" height="36px" viewBox="0 0 45 36" version="1.1" xmlns="http://www.w3.org/2000/svg" xmlns:xlink="http://www.w3.org/1999/xlink">
    <!-- Generator: Sketch 52.6 (67491) - http://www.bohemiancoding.com/sketch -->
    <title>Medium_icon</title>
    <desc>Created with Sketch.</desc>
    <g id="Page-1" stroke="none" stroke-width="1" fill="none" fill-rule="evenodd">
        <g id="Pixel-2" transform="translate(-90.000000, -1847.000000)" fill="#231F20">
            <g id="Medium_icon" transform="translate(90.000000, 1847.000000)">
                <g id="g10" transform="translate(22.500000, 18.000000) scale(-1, 1) rotate(-180.000000) translate(-22.500000, -18.000000) ">
                    <g id="g12">
                        <path d="M45,30.6947368 L43.22025,30.6947368 C42.5595,30.6947368 41.625,29.7315284 41.625,29.1148674 L41.625,6.76421053 C41.625,6.14679158 42.5595,5.30526316 43.22025,5.30526316 L45,5.30526316 L45,0 L28.875,0 L28.875,5.30526316 L32.25,5.30526316 L32.25,28.8 L32.084625,28.8 L24.203325,0 L18.1015125,0 L10.321875,28.8 L10.125,28.8 L10.125,5.30526316 L13.5,5.30526316 L13.5,0 L0,0 L0,5.30526316 L1.72866375,5.30526316 C2.440575,5.30526316 3.375,6.14679158 3.375,6.76421053 L3.375,29.1148674 C3.375,29.7315284 2.440575,30.6947368 1.72866375,30.6947368 L0,30.6947368 L0,36 L16.88115,36 L22.4235375,15.1578947 L22.5760125,15.1578947 L28.1696625,36 L45,36 L45,30.6947368" id="path14"></path>
                    </g>
                </g>
            </g>
        </g>
    </g>
</svg>