<svg xmlns="http://www.w3.org/2000/svg" width="46" height="46"><title>pinterest-seeklogo.com</title><desc>Created with Sketch.</desc><g fill="none"><g><g><circle cx="23" cy="23" r="23" fill="#fff"/><path fill="#CB1F27" d="M0 23c0 9.42 5.66 17.5 13.77 21.07-.07-1.6 0-3.54.4-5.3.44-1.85 2.96-12.52 2.96-12.52s-.74-1.47-.74-3.64c0-3.4 1.97-5.94 4.43-5.94 2.1 0 3.1 1.57 3.1 3.45 0 2.1-1.34 5.26-2.03 8.17-.58 2.44 1.22 4.43 3.63 4.43 4.36 0 7.3-5.6 7.3-12.22 0-5.05-3.4-8.82-9.58-8.82-6.97 0-11.32 5.2-11.32 11.02 0 2 .6 3.4 1.52 4.5.42.5.48.7.33 1.3-.1.4-.37 1.43-.47 1.83-.15.6-.62.8-1.14.6-3.22-1.32-4.7-4.84-4.7-8.8 0-6.53 5.5-14.36 16.42-14.36 8.78 0 14.56 6.35 14.56 13.17 0 9.03-5 15.77-12.4 15.77-2.5 0-4.82-1.34-5.62-2.86 0 0-1.34 5.3-1.62 6.33-.5 1.77-1.44 3.55-2.32 4.93 2.07.6 4.26.94 6.52.94 12.7 0 23-10.3 23-23S35.7 0 23 0 0 10.3 0 23z"/></g></g></g></svg>