<svg height="560" viewBox="0 0 960 560" width="960" xmlns="http://www.w3.org/2000/svg"><g fill="none" fill-rule="evenodd"><path d="m0 0h960v560h-960z" fill="#131313"/><path d="m105.099851 236c-.751122-1.000939-1.26751-2.33029-1.54918-3.988095-.281671-1.657805-.516393-3.425061-.704173-5.301821-.187781-1.87676-.391206-3.784771-.610283-5.72409-.219077-1.939318-.657225-3.690935-1.314456-5.254902-.657232-1.563966-1.6117676-2.83076-2.8636368-3.80042-1.2518691-.969659-3.0044597-1.454482-5.2578241-1.454482h-17.4634874v25.52381h-16.3368107v-67h35.0208644c3.1922663 0 6.3375406.250231 9.4359166.7507 3.098376.50047 5.852447 1.454475 8.262295 2.862045s4.365864 3.393778 5.868107 5.958684c1.502243 2.564905 2.253354 5.880465 2.253354 9.946778 0 3.878638-1.079721 7.241116-3.239196 10.087535-2.159474 2.84642-5.116971 4.832628-8.872578 5.958684 2.315958 1.000938 4.193734 2.267733 5.633383 3.80042 1.43965 1.532687 2.566315 3.253025 3.38003 5.161064.813715 1.90804 1.408344 3.941166 1.783904 6.09944.375561 2.158274.657228 4.332155.845008 6.521709.125187 1.814201.297316 3.565818.516393 5.254902s.923243 3.221748 2.112519 4.598039zm-30.099851-54v15h20.72c2.3022337 0 4.0911047-.640238 5.366667-1.920732 1.275562-1.280494 1.913333-3.140231 1.913333-5.579268 0-2.743916-.746659-4.679872-2.24-5.807927-1.4933408-1.128054-3.4222104-1.692073-5.7866667-1.692073zm54 54v-67h53.905594v13.70028h-37.479021v12.292717h30.304196v13.137255h-30.304196v14.169468h37.573427v13.70028zm59-23v-9h26v9zm-113.2020202 112v-52.455182h-19.7979798v-14.544818h56v14.544818h-19.7979798v52.455182zm84.1824122 0v-25.054622h-24.77451v25.054622h-16.205882v-67h16.205882v27.40056h24.77451v-27.40056h16.019608v67zm28.019608 0v-67h16v67zm71.974643 0-30.668779-46.44958v46.44958h-14.305864v-67h20.944532l23.375595 36.878151v-36.878151h14.679873v67zm68.927762 0-18.016974-30.309524-10.64215 9.665266v20.644258h-16.243281v-67h16.243281v27.212885l26.978784-27.212885h22.777935l-28.005658 25.429972 25.018388 41.570028zm27.097595 0v-67h16v67zm71.974643 0-30.668779-46.44958v46.44958h-14.305864v-67h20.944532l23.375595 36.878151v-36.878151h14.679873v67zm78.199034.324468v-9.401596c-.936233 1.427312-2.122109 2.808061-3.557666 4.142288-1.435557 1.334226-3.12075 2.513292-5.055631 3.537234-1.934881 1.023941-4.119391 1.846184-6.553596 2.466755-2.434205.62057-5.055617.930851-7.864315.930851-5.180487 0-9.814769-.946356-13.902985-2.839096-4.088215-1.89274-7.552224-4.437041-10.39213-7.632978-2.839906-3.195938-5.024416-6.919305-6.553596-11.170213-1.529179-4.250908-2.293758-8.734462-2.293758-13.450798 0-5.212792.889408-9.960085 2.66825-14.242021 1.778842-4.281937 4.21301-7.958762 7.302578-11.030585 3.089567-3.071824 6.709613-5.445471 10.860244-7.121011s8.566462-2.513298 13.247625-2.513298c4.306671 0 8.33241.511963 12.077341 1.535904 3.744931 1.023942 7.068507 2.590858 9.970828 4.700798s5.336489 4.793867 7.302578 8.051862c1.966088 3.257995 3.354812 7.120988 4.166214 11.589096h-15.260516c-1.24831-4.033709-3.43282-6.950346-6.553595-8.75-3.120776-1.799655-6.803235-2.699469-11.04749-2.699469-2.559036 0-4.946393.465421-7.162144 1.396277-2.21575.930856-4.166206 2.280576-5.851425 4.049202-1.685218 1.768626-3.011528 3.925076-3.978968 6.469415-.967441 2.544339-1.451154 5.429949-1.451154 8.656915 0 3.040795.390091 5.879863 1.170285 8.517287.780194 2.637425 1.950467 4.933501 3.510855 6.888298s3.464032 3.490686 5.710991 4.607713c2.246958 1.117027 4.86837 1.675532 7.864314 1.675532 4.306671 0 7.833094-1.023926 10.579376-3.071809 2.746283-2.047882 4.462683-4.623211 5.149254-7.726064h-16.75848v-11.821808h35.483039v34.255319zm-402.760531 23.675532h15.586854v40.967213c0 9.103871-2.566485 15.885224-7.699531 20.344262-5.133046 4.459039-12.7386033 6.688525-22.8169009 6.688525-9.4523165 0-16.729239-2.415276-21.8309859-7.245902-5.101747-4.830625-7.6525822-11.766803-7.6525822-20.808743v-39.945355h16.3380282v38.459016c0 2.291451.2347394 4.381594.7042253 6.270492.4694859 1.888899 1.2519507 3.499083 2.3474179 4.830601 1.0954671 1.331519 2.5352023 2.368849 4.3192488 3.112022s3.9905972 1.114754 6.6197183 1.114754c2.7543174 0 5.0391146-.340616 6.8544601-1.021858s3.2550807-1.672124 4.3192488-2.972677c1.0641676-1.300553 1.8153346-2.879772 2.2535216-4.737705.438186-1.857933.657277-3.963559.657277-6.31694zm65.824606 66-13.393372-22.708683-14.329971 22.708683h-17.514409l22.853026-35.001401-21.729107-31.998599h19.293948l12.082133 20.362745 12.456772-20.362745h17.51441l-20.886168 31.904762 23.414986 35.095238zm-80.7606976 90-21.4770544-21.476485h17.5304162l.0458912-52.523515h7.9391675l-.0458911 52.523515h17.5304162z" fill="#fff"/></g></svg>