<svg xmlns="http://www.w3.org/2000/svg" width="152" height="144"><title>search</title><desc>Created with Sketch.</desc><g fill="none"><g><g><path fill="#252525" d="M0 0h152v144H0z"/><path fill="#fff" fill-rule="nonzero" d="M99 89.02L86.73 76.84c1.8-2.8 2.84-6.13 2.84-9.7 0-10-8.2-18.14-18.3-18.14C61.2 49 53 57.14 53 67.15c0 10 8.2 18.15 18.28 18.15 3.42 0 6.6-.94 9.35-2.56L92.98 95 99 89.02zM60 67.5C60 61.16 65.16 56 71.5 56S83 61.16 83 67.5 77.84 79 71.5 79 60 73.84 60 67.5z"/></g></g></g></svg>