<svg xmlns="http://www.w3.org/2000/svg" width="152" height="144"><title>settings</title><desc>Created with Sketch.</desc><g fill="none"><g><g><path fill="#252525" d="M0 0h152v144H0z"/><path fill="#fff" fill-rule="nonzero" d="M99 75.83v-7.66h-6.2c-.43-1.93-1.2-3.72-2.2-5.34l4.38-4.38-5.43-5.43-4.38 4.4c-1.62-1.03-3.4-1.8-5.34-2.23V49h-7.66v6.2c-1.93.43-3.72 1.2-5.34 2.2l-4.38-4.37-5.43 5.42 4.4 4.38c-1.03 1.62-1.8 3.4-2.23 5.34H53v7.66h6.2c.43 1.93 1.2 3.72 2.2 5.34l-4.38 4.38 5.43 5.42 4.38-4.38c1.62 1 3.4 1.77 5.34 2.2V95h7.66v-6.2c1.93-.43 3.72-1.2 5.34-2.2l4.38 4.38 5.42-5.43-4.38-4.38c1-1.62 1.77-3.4 2.2-5.34H99zM76.5 80c-4.14 0-7.5-3.36-7.5-7.5 0-4.14 3.36-7.5 7.5-7.5 4.14 0 7.5 3.36 7.5 7.5 0 4.14-3.36 7.5-7.5 7.5z"/></g></g></g></svg>