<?xml version="1.0" encoding="UTF-8"?>
<svg width="152px" height="144px" viewBox="0 0 152 144" version="1.1" xmlns="http://www.w3.org/2000/svg" xmlns:xlink="http://www.w3.org/1999/xlink">
    <!-- Generator: Sketch 52.6 (67491) - http://www.bohemiancoding.com/sketch -->
    <title>trends</title>
    <desc>Created with Sketch.</desc>
    <g id="Page-1" stroke="none" stroke-width="1" fill="none" fill-rule="evenodd">
        <g id="Pixel-2" transform="translate(-224.000000, -4540.000000)">
            <g id="trends" transform="translate(224.000000, 4540.000000)">
                <rect id="Rectangle-Copy-14" fill="#252525" x="0" y="0" width="152" height="144"></rect>
                <path d="M69.625,50 C70.7772222,63.179739 59,67.7172066 59,79.3257902 C59,87.2109004 64.797,93.941019 76,93.9996852 C87.203,94.0583515 93,85.9074098 93,77.5804693 C93,69.9886903 89.1051111,62.8295749 81.7573333,58.3782734 C83.5026667,63.1577392 81.1793333,67.5228746 78.9221111,69.0261972 C79.0543333,62.9084076 76.7971111,53.8298059 69.625,50 Z M78.2776958,74 C85.4460962,81.0915556 81.0438775,90 75.2862488,90 C71.7831823,90 69.9810598,87.7511111 70.0001501,85.4186667 C70.0364216,81.0933333 75.2251599,81.0897778 78.2776958,74 Z" fill="#FFFFFF"></path>
            </g>
        </g>
    </g>
</svg>