<svg xmlns="http://www.w3.org/2000/svg" xmlns:xlink="http://www.w3.org/1999/xlink" width="340" height="214"><defs><path id="a" d="M0 0h340v214H0z"/></defs><g fill="none" fill-rule="evenodd"><mask id="b" fill="#fff"><use xlink:href="#a"/></mask><use fill="#039FF2" xlink:href="#a"/><g fill="#FFF" mask="url(#b)"><path d="M151 149.2c38.6 0 59.6-32.4 59.6-60.5V86c4-3 7.6-6.8 10.4-11a41.2 41.2 0 0 1-12 3.3c4.3-2.6 7.6-6.8 9.2-11.7-4 2.4-8.5 4.2-13.3 5.1a20.8 20.8 0 0 0-15.3-6.7 21 21 0 0 0-20.4 26.1 59.1 59.1 0 0 1-43.1-22.2 21.4 21.4 0 0 0 6.5 28.4c-3.5-.1-6.7-1.1-9.5-2.7v.3c0 10.3 7.2 18.9 16.8 20.8a20.7 20.7 0 0 1-9.5.4 21 21 0 0 0 19.6 14.7 41.6 41.6 0 0 1-31 8.8c9.3 6 20.3 9.6 32 9.6"/></g></g></svg>