<?xml version="1.0" encoding="UTF-8"?>
<svg width="340px" height="214px" viewBox="0 0 340 214" version="1.1" xmlns="http://www.w3.org/2000/svg" xmlns:xlink="http://www.w3.org/1999/xlink">
    <!-- Generator: Sketch 52.6 (67491) - http://www.bohemiancoding.com/sketch -->
    <title>logosFramed/twitter</title>
    <desc>Created with Sketch.</desc>
    <defs>
        <rect id="path-1" x="0" y="0" width="340" height="214"></rect>
    </defs>
    <g id="logosFramed/twitter" stroke="none" stroke-width="1" fill="none" fill-rule="evenodd">
        <g id="Twitter">
            <mask id="mask-2" fill="white">
                <use xlink:href="#path-1"></use>
            </mask>
            <use id="Background" fill="#039FF2" xlink:href="#path-1"></use>
            <g id="logos/twitter" mask="url(#mask-2)" fill="#FFFFFF">
                <g transform="translate(119.000000, 65.000000)" id="path3611">
                    <path d="M32.0782491,84.18702 C70.5714142,84.18702 91.6203512,51.8008632 91.6203512,23.7178078 C91.6203512,22.7979302 91.6019022,21.882203 91.5612733,20.9706159 C95.6474325,17.9706721 99.1991115,14.2269541 102.00006,9.96528793 C98.2505009,11.6579375 94.2153417,12.7974222 89.9822956,13.311227 C94.3030617,10.6800539 97.6201338,6.51783936 99.1848315,1.55590957 C95.1415089,3.99025801 90.6636627,5.75956634 85.8961329,6.71465705 C82.0772138,2.58351553 76.6405569,5.68434189e-14 70.6204564,5.68434189e-14 C59.0637355,5.68434189e-14 49.6918761,9.51778665 49.6918761,21.2503077 C49.6918761,22.9180926 49.8754761,24.5403056 50.2345231,26.0962117 C32.8413053,25.2074174 17.4187384,16.7503885 7.09827516,3.89081328 C5.30101393,7.0316406 4.26468668,10.6800539 4.26468668,14.5729389 C4.26468668,21.9464277 7.95916234,28.45598 13.5773793,32.2639227 C10.1440271,32.1561909 6.91875167,31.1990215 4.09943977,29.6058201 C4.09635924,29.6949895 4.09635924,29.7819237 4.09635924,29.8772249 C4.09635924,40.1698552 11.3098773,48.7636241 20.8857369,50.7111008 C19.1272391,51.1979725 17.2769378,51.459015 15.36748,51.459015 C14.0210658,51.459015 12.7093316,51.3244336 11.4343208,51.0757384 C14.0985858,59.5203368 21.8241441,65.6652514 30.9838435,65.8372149 C23.8213254,71.5387649 14.7983129,74.9344263 4.99193327,74.9344263 C3.30483208,74.9344263 1.63813775,74.8369699 0,74.6402286 C9.26169942,80.6691314 20.2594532,84.18702 32.0793307,84.18702"></path>
                </g>
            </g>
        </g>
    </g>
</svg>