<?xml version="1.0" encoding="UTF-8"?>
<svg width="152px" height="144px" viewBox="0 0 152 144" version="1.1" xmlns="http://www.w3.org/2000/svg" xmlns:xlink="http://www.w3.org/1999/xlink">
    <!-- Generator: Sketch 52.6 (67491) - http://www.bohemiancoding.com/sketch -->
    <title>logosFramed/ubereats</title>
    <desc>Created with Sketch.</desc>
    <g id="logosFramed/ubereats" stroke="none" stroke-width="1" fill="none" fill-rule="evenodd">
        <g id="ubereats">
            <rect id="Rectangle-Copy-2" fill="#D9D9D9" x="0" y="0" width="152" height="144"></rect>
            <g id="logos/ubereats" transform="translate(37.000000, 54.000000)">
                <g id="UberEATS_logo_december_2017">
                    <path d="M6.0004421,9 C8.36870026,9 10,8.03140944 10,5.26052297 L10,0 L8.46905394,0 C8.33554375,0 8.26834659,0.0722257653 8.26834659,0.217155613 L8.26834659,5.17873087 C8.26834659,6.83609695 7.59018568,7.52391581 6.0004421,7.52391581 C4.4106985,7.52391581 3.73253758,6.83609695 3.73253758,5.17873087 L3.73253758,0 L2.20114943,0 C2.06719717,0 2,0.0722257653 2,0.217155613 L2,5.26052297 C2,8.03140944 3.63218391,9 6.0004421,9" id="Fill-1" fill="#262626"></path>
                    <g id="Group-5" transform="translate(23.000000, 0.000000)" fill="#262626">
                        <path d="M0.68220478,8.88900556 L6.87644513,8.88900556 C7.0117238,8.88900556 7.0745998,8.84336338 7.11985147,8.74343105 L7.59761393,7.55193005 C7.62476493,7.47890259 7.59761393,7.44286929 7.5256876,7.44286929 L1.85398509,7.44286929 L1.85398509,5.86941535 C1.85398509,5.32411147 2.15169351,5.07812417 2.95431539,5.07812417 L5.41553038,5.07812417 C5.55080908,5.07812417 5.61416143,5.03296244 5.65893677,4.9330301 L6.1190749,3.78717129 C6.14574957,3.71414381 6.1190749,3.67763007 6.04667221,3.67763007 L1.85398509,3.67763007 L1.85398509,1.44981148 L6.87644513,1.44981148 C7.0117238,1.44981148 7.0745998,1.4041693 7.11985147,1.30375652 L7.59761393,0.112735975 C7.62476493,0.0401889394 7.59761393,0.00319475538 7.5256876,0.00319475538 L0.8803595,0.00319475538 C0.257791669,0.00319475538 0.0239119397,0.194411447 0.0239119397,0.62200656 L0.0239119397,8.36147811 C0.0239119397,8.72565459 0.203965988,8.88900556 0.68220478,8.88900556" id="Fill-3"></path>
                    </g>
                    <path d="M14.7713692,5.90477478 C14.7713692,5.35191695 15.0597531,5.10322826 15.8376975,5.10322826 L17.9255969,5.10322826 C18.9300958,5.10322826 19.2097128,5.50862489 19.2097128,6.33791165 C19.2097128,7.16671173 18.9300958,7.55410158 17.9255969,7.55410158 L14.7713692,7.55410158 L14.7713692,5.90477478 Z M14.7713692,1.44589845 L17.5938401,1.44589845 C18.5374323,1.44589845 18.7990541,1.82063484 18.7990541,2.59736116 C18.7990541,3.37457417 18.5374323,3.74882389 17.5938401,3.74882389 L14.7713692,3.74882389 L14.7713692,1.44589845 Z M13.637213,9 L18.1087784,9 C19.7947861,9 21,8.30892773 21,6.51311307 C21,5.43513763 20.5635022,4.52263019 19.6028377,4.25593468 C20.3014189,3.86854486 20.5898028,3.14097227 20.5898028,2.28443195 C20.5898028,0.294435733 19.0523705,0 17.4627985,0 L13.8291613,0 C13.2260929,0 13,0.192721571 13,0.625858434 L13,8.46612229 C13,8.83404534 13.1744145,9 13.637213,9 Z" id="Fill-6" fill="#262626"></path>
                    <path d="M34.7513356,1.44630691 L37.6843555,1.44630691 C38.7799086,1.44630691 39.0214407,1.89791284 39.0214407,2.80988429 C39.0214407,3.73110198 38.7799086,4.17346167 37.6843555,4.17346167 L34.7513356,4.17346167 L34.7513356,1.44630691 Z M33.2068973,9 L34.7513356,9 L34.7513356,6.37455392 C34.7513356,5.82221261 35.0361611,5.57305073 35.8035952,5.57305073 L37.3566921,5.57305073 L39.0647342,8.85303345 C39.1166864,8.94452252 39.1681828,9 39.2971519,9 L40.902201,9 C41.0143084,9 41.0143084,8.89877802 40.9796736,8.84378716 L39.0907103,5.37985294 C40.0308626,5.12241808 40.7900936,4.45863523 40.7900936,2.77289933 C40.7900936,0.589326269 39.5218223,0 37.425506,0 L33.8202977,0 C33.2246704,0 33,0.193684438 33,0.626311237 L33,8.77906348 C33,8.92651672 33.0692696,9 33.2068973,9 Z" id="Fill-8" fill="#262626"></path>
                    <g id="Group-12" transform="translate(58.000000, 13.000000)" fill="#7DC240">
                        <path d="M12.1068793,9.32813915 L10.85493,9.02461238 C7.47444591,8.1736227 5.84713251,7.68746536 5.84713251,6.47164328 C5.84713251,5.13492498 7.41217962,4.46656582 9.41529863,4.46656582 C11.9191974,4.46656582 13.4842445,5.37800365 14.3603882,7.26218485 C14.5480703,7.62658852 14.7984601,7.68746536 15.1742657,7.56571163 L18.8046981,6.22899334 C19.1805037,6.04636281 19.3059194,5.80328414 19.1177959,5.43888049 C17.6154566,1.91402546 14.2976804,0.0302729622 9.72795476,0.0302729622 C4.03169553,0.0302729622 0.651211422,2.76458644 0.651211422,6.71515068 C0.651211422,10.3004538 3.34279217,11.8806795 8.53871324,13.2173979 L9.72795476,13.5213534 C12.9207568,14.3114662 14.7361938,14.7976236 14.7361938,16.1952187 C14.7361938,17.7754444 12.9207568,18.5046804 10.4791244,18.5046804 C7.53715374,18.5046804 5.4713269,17.2284102 4.53247527,14.8580717 C4.40705953,14.4936681 4.09396179,14.3723431 3.71859778,14.5545449 L0.463529418,16.0738938 C0.150431674,16.2560955 -0.0372503297,16.4991742 0.0877238051,16.8640066 C1.90316079,21.1785458 5.15822916,22.9409732 10.3541502,22.9409732 C16.0508511,22.9409732 19.8694071,20.3884329 19.8694071,16.1952187 C19.8694071,12.1237582 17.1773847,10.5435325 12.1068793,9.32813915" id="Fill-10"></path>
                    </g>
                    <path d="M5.57857607,22.1511948 C6.32900464,18.8673865 8.82696513,17.5758126 11.2460244,17.5758126 C14.3799633,17.5758126 16.0390565,19.1010834 16.469545,22.1511948 L5.57857607,22.1511948 Z M11.2460244,13 C4.91615267,13 0,17.6364963 0,24.2863158 C0,31.4246178 4.91615267,36 11.2460244,36 C15.3631939,36 19.173429,34.6580715 21.2014503,30.6314253 C21.3856976,30.2656013 21.2630106,30.0211448 20.8940824,29.8382328 L17.3912153,28.2518478 C17.0261887,28.0865815 16.7769129,28.1911641 16.592232,28.5569881 C15.6705618,30.3873992 13.7041007,31.2417058 11.2460244,31.2417058 C9.15470862,31.2417058 7.00530077,30.2737786 5.97438271,27.7990869 C5.6314659,26.7919949 5.95444065,26.177841 7.06729461,26.177841 L21.3856976,26.177841 C21.7546258,26.177841 22,25.9338149 22,25.5675605 L22,24.8354821 C22,17.5146984 17.8212702,13 11.2460244,13 Z" id="Fill-13" fill="#7DC240"></path>
                    <g id="Group-17" transform="translate(22.000000, 13.000000)" fill="#7DC240">
                        <path d="M14.8691282,14.8582432 C14.8691282,16.9850743 11.8661567,18.4439751 8.98808849,18.4439751 C6.86076304,18.4439751 5.42194961,17.5929853 5.42194961,16.1345134 C5.42194961,14.4329627 7.48660277,13.8859285 9.36368055,13.5215248 L14.8691282,12.3057028 L14.8691282,14.8582432 Z M20.375017,15.769681 L20.375017,8.65995148 C20.375017,2.76475792 16.6835337,0.0300157361 10.7402632,0.0300157361 C5.42194961,0.0300157361 1.91848299,2.33947743 0.667244909,5.49950011 C0.542341776,5.86433247 0.72991715,6.16785927 1.04239565,6.28961295 L4.67164812,7.86983864 C5.04679887,8.05204047 5.29704648,7.9302868 5.48462186,7.56588313 C6.54828456,5.31729829 8.1124425,4.64893913 10.7402632,4.64893913 C13.0547226,4.64893913 14.744225,5.6212538 14.744225,7.07972579 C14.744225,7.74808497 14.4313052,8.17336547 13.7432346,8.53819781 C12.742244,9.02435515 10.7402632,9.26743382 7.549275,9.99666984 C3.10749018,11.0298614 0.04140519,12.3057028 0.04140519,16.3167152 C0.04140519,20.753008 3.85779167,22.9411447 8.2373456,22.9411447 C11.3656615,22.9411447 14.1183853,21.8470764 15.3069512,19.9633239 L15.3696234,19.9633239 C15.5576401,20.631683 15.8074464,21.482244 16.1830384,22.0901551 C16.3079416,22.3332337 16.5586305,22.4545587 16.871109,22.4545587 L21.4382384,22.4545587 C21.9387336,22.4545587 22.126309,22.1510319 21.8760614,21.7257514 C20.9377431,20.3277275 20.375017,18.6870537 20.375017,15.769681 Z" id="Fill-15"></path>
                    </g>
                    <path d="M56.4662045,29.9113419 C56.2918771,29.5519388 56.0593039,29.4923902 55.710239,29.6123321 C54.7799462,30.0312837 53.9661451,30.2107741 53.3845069,30.2107741 C52.0473136,30.2107741 51.1166105,29.3724484 51.1166105,27.5766999 L51.1166105,19.315074 C51.1166105,18.4167775 51.6982486,17.8183354 52.5702956,17.8183354 L56.5826962,17.8183354 C56.9313508,17.8183354 57.1639241,17.5788741 57.1639241,17.219471 L57.1639241,13.8670129 C57.1639241,13.5080321 56.9313508,13.2685708 56.5826962,13.2685708 L51.1166105,13.2685708 L51.1166105,8.59886442 C51.1166105,8.23946128 50.8844475,8 50.5353826,8 L46.5816381,8 C46.2325732,8 46,8.23946128 46,8.59886442 L46,28.1155934 C46,32.7253289 48.6165511,35 52.8028688,35 C54.4895373,35 56.0010581,34.5810483 57.6290705,33.8026935 C57.9781354,33.683174 58.0942169,33.3237709 57.9198895,33.0243388 L56.4662045,29.9113419 Z" id="Fill-18" fill="#7DC240"></path>
                </g>
            </g>
        </g>
    </g>
</svg>