<svg xmlns="http://www.w3.org/2000/svg" width="152" height="144"><title>logosFramed/ubereats</title><desc>Created with Sketch.</desc><g fill="none"><g><path fill="#D9D9D9" d="M0 0h152v144H0z"/><g><g><path fill="#262626" d="M43 63c2.37 0 4-.97 4-3.74V54h-1.53c-.13 0-.2.07-.2.22v4.96c0 1.66-.68 2.34-2.27 2.34-1.6 0-2.27-.68-2.27-2.34V54H39.2c-.13 0-.2.07-.2.22v5.04c0 2.77 1.63 3.74 4 3.74"/><g fill="#262626"><path d="M60.68 62.9h6.2c.13 0 .2-.06.24-.16l.48-1.2c.02-.06 0-.1-.07-.1h-5.68v-1.57c0-.55.3-.8 1.1-.8h2.47c.13 0 .2-.04.24-.14l.46-1.14c.03-.1 0-.12-.07-.12h-4.2v-2.23h5.03c.13 0 .2-.05.24-.15l.48-1.2c.02-.06 0-.1-.07-.1h-6.65c-.62 0-.86.2-.86.62v7.74c0 .37.18.53.66.53"/></g><path fill="#262626" d="M51.77 59.9c0-.55.3-.8 1.07-.8h2.1c1 0 1.27.4 1.27 1.24 0 .83-.27 1.2-1.27 1.2h-3.16V59.9zm0-4.45h2.82c.94 0 1.2.37 1.2 1.15 0 .77-.26 1.15-1.2 1.15h-2.83v-2.3zM50.64 63h4.47c1.7 0 2.9-.7 2.9-2.5 0-1.06-.44-1.98-1.4-2.24.7-.4 1-1.12 1-1.98 0-2-1.55-2.28-3.14-2.28h-3.63c-.6 0-.83.2-.83.63v7.84c0 .36.17.53.64.53z"/><path fill="#262626" d="M71.75 55.45h2.93c1.1 0 1.34.45 1.34 1.36 0 .93-.24 1.37-1.34 1.37h-2.93v-2.72zM70.2 63h1.55v-2.63c0-.55.3-.8 1.05-.8h1.56l1.7 3.28c.06.1.1.15.24.15h1.6c.1 0 .1-.1.08-.16l-1.9-3.46c.95-.26 1.7-.92 1.7-2.6 0-2.2-1.26-2.78-3.35-2.78h-3.6c-.6 0-.83.2-.83.63v8.15c0 .15.07.22.2.22z"/><g fill="#7DC240"><path d="M107.1 76.33l-1.25-.3c-3.38-.86-5-1.34-5-2.56 0-1.34 1.56-2 3.57-2 2.5 0 4.06.9 4.94 2.8.2.36.44.42.8.3l3.64-1.34c.38-.18.5-.43.32-.8-1.5-3.52-4.82-5.4-9.4-5.4-5.7 0-9.07 2.73-9.07 6.7 0 3.57 2.7 5.15 7.9 6.5l1.18.3c3.2.78 5 1.27 5 2.67 0 1.58-1.8 2.3-4.25 2.3-2.94 0-5-1.27-5.95-3.64-.12-.37-.44-.5-.8-.3l-3.27 1.5c-.3.2-.5.44-.37.8 1.8 4.32 5.06 6.08 10.25 6.08 5.7 0 9.52-2.55 9.52-6.74 0-4.08-2.7-5.66-7.76-6.87"/></g><path fill="#7DC240" d="M42.58 76.15c.75-3.28 3.25-4.57 5.67-4.57 3.13 0 4.8 1.52 5.22 4.57h-10.9zM48.25 67C41.92 67 37 71.64 37 78.3 37 85.4 41.92 90 48.25 90c4.1 0 7.92-1.34 9.95-5.37.2-.36.06-.6-.3-.8l-3.5-1.58c-.37-.16-.62-.06-.8.3-.93 1.84-2.9 2.7-5.35 2.7-2.1 0-4.24-.98-5.28-3.45-.34-1-.02-1.62 1.1-1.62H58.4c.35 0 .6-.25.6-.6v-.74C59 71.5 54.82 67 48.25 67z"/><g fill="#7DC240"><path d="M73.87 81.86c0 2.13-3 3.58-5.88 3.58-2.14 0-3.58-.85-3.58-2.3 0-1.7 2.07-2.25 3.94-2.62l5.5-1.2v2.54zm5.5.9v-7.1c0-5.9-3.7-8.63-9.63-8.63-5.32 0-8.82 2.3-10.07 5.47-.13.36.06.67.37.8l3.63 1.57c.38.18.63.06.8-.3 1.08-2.25 2.64-2.92 5.27-2.92 2.3 0 4 .97 4 2.43 0 .67-.3 1.1-1 1.46-1 .48-3 .73-6.2 1.46-4.43 1.03-7.5 2.3-7.5 6.32 0 4.43 3.82 6.62 8.2 6.62 3.13 0 5.88-1.1 7.07-2.98h.07c.2.67.44 1.52.8 2.13.14.23.4.35.7.35h4.57c.5 0 .7-.3.44-.72-.94-1.4-1.5-3.04-1.5-5.96z"/></g><path fill="#7DC240" d="M93.47 83.9c-.18-.35-.4-.4-.76-.3-.92.43-1.73.6-2.32.6-1.33 0-2.26-.83-2.26-2.62v-8.26c0-.9.58-1.5 1.45-1.5h4c.36 0 .6-.24.6-.6v-3.35c0-.36-.24-.6-.6-.6h-5.45V62.6c0-.36-.24-.6-.58-.6h-3.96c-.35 0-.58.24-.58.6v19.52c0 4.6 2.62 6.88 6.8 6.88 1.7 0 3.2-.42 4.83-1.2.35-.12.46-.48.3-.78l-1.46-3.1z"/></g></g></g></g></svg>