<?xml version="1.0" encoding="UTF-8"?>
<svg width="45px" height="46px" viewBox="0 0 45 46" version="1.1" xmlns="http://www.w3.org/2000/svg" xmlns:xlink="http://www.w3.org/1999/xlink">
    <!-- Generator: Sketch 52.6 (67491) - http://www.bohemiancoding.com/sketch -->
    <title>WhatsApp</title>
    <desc>Created with Sketch.</desc>
    <g id="Page-1" stroke="none" stroke-width="1" fill="none" fill-rule="evenodd">
        <g id="Pixel-2" transform="translate(-279.000000, -2058.000000)">
            <g id="WhatsApp" transform="translate(279.000000, 2058.000000)">
                <path d="M10.0292124,40.875 L10.7815392,41.25 C13.9162343,43.125 17.4270929,44 20.9379514,44 C31.9720781,44 41,35 41,24 C41,18.75 38.8684073,13.625 35.1067732,9.875 C31.3451391,6.125 26.3296269,4 20.9379514,4 C9.90382462,4 0.875902733,13 1.00129054,24.125 C1.00129054,27.875 2.12978077,31.5 4.01059783,34.625 L4.51214905,35.375 L2.50594418,42.75 L10.0292124,40.875 Z" id="Path" fill="#00E676"></path>
                <path d="M38.5013624,6.71351351 C34.3324251,2.36216216 28.5694823,0 22.6839237,0 C10.1771117,0 0.122615804,10.3189189 0.245231608,22.8756757 C0.245231608,26.8540541 1.34877384,30.7081081 3.1880109,34.1891892 L0,46 L11.893733,42.8918919 C15.2043597,44.7567568 18.8828338,45.627027 22.5613079,45.627027 C34.9455041,45.627027 45,35.3081081 45,22.7513514 C45,16.6594595 42.6702997,10.9405405 38.5013624,6.71351351 Z M22.6839237,41.772973 C19.373297,41.772973 16.0626703,40.9027027 13.2425068,39.1621622 L12.506812,38.7891892 L5.39509537,40.6540541 L7.23433243,33.5675676 L6.74386921,32.8216216 C1.34877384,23.9945946 3.92370572,12.3081081 12.7520436,6.83783784 C21.5803815,1.36756757 32.9836512,3.97837838 38.3787466,12.9297297 C43.773842,21.8810811 41.1989101,33.4432432 32.3705722,38.9135135 C29.5504087,40.7783784 26.1171662,41.772973 22.6839237,41.772973 Z M33.4741144,27.972973 L32.1253406,27.3513514 C32.1253406,27.3513514 30.1634877,26.4810811 28.9373297,25.8594595 C28.8147139,25.8594595 28.6920981,25.7351351 28.5694823,25.7351351 C28.2016349,25.7351351 27.9564033,25.8594595 27.7111717,25.9837838 C27.7111717,25.9837838 27.5885559,26.1081081 25.8719346,28.0972973 C25.7493188,28.3459459 25.5040872,28.4702703 25.2588556,28.4702703 L25.1362398,28.4702703 C25.013624,28.4702703 24.7683924,28.3459459 24.6457766,28.2216216 L24.0326975,27.972973 C22.6839237,27.3513514 21.4577657,26.6054054 20.4768392,25.6108108 C20.2316076,25.3621622 19.8637602,25.1135135 19.6185286,24.8648649 C18.760218,23.9945946 17.9019074,23 17.2888283,21.8810811 L17.1662125,21.6324324 C17.0435967,21.5081081 17.0435967,21.3837838 16.9209809,21.1351351 C16.9209809,20.8864865 16.9209809,20.6378378 17.0435967,20.5135135 C17.0435967,20.5135135 17.5340599,19.8918919 17.9019074,19.5189189 C18.147139,19.2702703 18.2697548,18.8972973 18.5149864,18.6486486 C18.760218,18.2756757 18.8828338,17.7783784 18.760218,17.4054054 C18.6376022,16.7837838 17.1662125,13.427027 16.7983651,12.6810811 C16.5531335,12.3081081 16.3079019,12.1837838 15.9400545,12.0594595 L15.5722071,12.0594595 C15.3269755,12.0594595 14.9591281,12.0594595 14.5912807,12.0594595 C14.346049,12.0594595 14.1008174,12.1837838 13.8555858,12.1837838 L13.73297,12.3081081 C13.4877384,12.4324324 13.2425068,12.6810811 12.9972752,12.8054054 C12.7520436,13.0540541 12.6294278,13.3027027 12.3841962,13.5513514 C11.5258856,14.6702703 11.0354223,16.0378378 11.0354223,17.4054054 C11.0354223,18.4 11.280654,19.3945946 11.6485014,20.2648649 L11.7711172,20.6378378 C12.8746594,23 14.346049,25.1135135 16.3079019,26.9783784 L16.7983651,27.4756757 C17.1662125,27.8486486 17.5340599,28.0972973 17.7792916,28.4702703 C20.3542234,30.7081081 23.2970027,32.3243243 26.6076294,33.1945946 C26.9754768,33.3189189 27.4659401,33.3189189 27.8337875,33.4432432 C28.2016349,33.4432432 28.6920981,33.4432432 29.0599455,33.4432432 C29.6730245,33.4432432 30.4087193,33.1945946 30.8991826,32.9459459 C31.26703,32.6972973 31.5122616,32.6972973 31.7574932,32.4486486 L32.0027248,32.2 C32.2479564,31.9513514 32.493188,31.827027 32.7384196,31.5783784 C32.9836512,31.3297297 33.2288828,31.0810811 33.3514986,30.8324324 C33.5967302,30.3351351 33.719346,29.7135135 33.8419619,29.0918919 C33.8419619,28.8432432 33.8419619,28.4702703 33.8419619,28.2216216 C33.8419619,28.2216216 33.719346,28.0972973 33.4741144,27.972973 Z" id="Shape" fill="#FFFFFF" fill-rule="nonzero"></path>
            </g>
        </g>
    </g>
</svg>