<svg xmlns="http://www.w3.org/2000/svg" width="152" height="144"><title>logosFramed/whatsapp</title><desc>Created with Sketch.</desc><g fill="none"><g><path fill="#D9D9D9" d="M0 0h152v144H0z"/><g><g><path fill="#00E676" d="M65.03 89.88l.75.37C68.92 92.13 72.43 93 75.94 93 86.97 93 96 84 96 73c0-5.25-2.13-10.38-5.9-14.13C86.36 55.13 81.34 53 75.95 53 64.9 53 55.88 62 56 73.13c0 3.75 1.13 7.37 3 10.5l.5.75-2 7.37 7.53-1.88z"/><path fill="#fff" fill-rule="nonzero" d="M93.5 55.7c-4.17-4.34-9.93-6.7-15.82-6.7-12.5 0-22.56 10.32-22.43 22.88 0 3.97 1.1 7.83 2.94 11.3L55 95l11.9-3.1c3.3 1.86 6.98 2.73 10.66 2.73 12.4 0 22.44-10.32 22.44-22.88 0-6.1-2.33-11.8-6.5-16.04zM77.68 90.78c-3.3 0-6.62-.87-9.44-2.6l-.73-.38-7.1 1.85 1.83-7.08-.5-.75c-5.38-8.83-2.8-20.5 6.02-25.98 8.83-5.47 20.23-2.86 25.63 6.1 5.4 8.94 2.82 20.5-6 25.97-2.83 1.88-6.26 2.87-9.7 2.87zm10.8-13.8l-1.35-.62s-1.97-.87-3.2-1.5c-.12 0-.24-.1-.36-.1-.37 0-.6.1-.86.23 0 0-.1.13-1.83 2.12-.12.25-.37.37-.6.37h-.13c-.13 0-.37-.12-.5-.25l-.6-.25c-1.36-.62-2.58-1.36-3.56-2.36-.25-.24-.62-.5-.86-.74-.86-.87-1.72-1.86-2.33-2.98l-.13-.25c-.13-.12-.13-.25-.25-.5 0-.24 0-.5.12-.62 0 0 .5-.6.86-.98.25-.25.37-.62.6-.87.26-.37.38-.87.26-1.24-.12-.62-1.6-3.97-1.96-4.72-.25-.37-.5-.5-.86-.62h-.37c-.24 0-.6 0-.98 0-.25 0-.5.12-.74.12l-.13.13c-.24.13-.5.38-.73.5-.25.25-.37.5-.62.75-.85 1.12-1.34 2.5-1.34 3.86 0 1 .24 2 .6 2.86l.13.38c1.1 2.36 2.58 4.47 4.54 6.34l.5.5c.37.37.73.62.98 1 2.57 2.23 5.52 3.84 8.83 4.7.38.14.87.14 1.23.26.37 0 .86 0 1.23 0 .6 0 1.35-.25 1.84-.5.37-.24.6-.24.86-.5l.24-.24c.25-.25.5-.37.74-.62s.5-.5.6-.75c.26-.5.38-1.12.5-1.74 0-.26 0-.63 0-.88 0 0-.12-.12-.37-.25z"/></g></g></g></g></svg>